<svg xmlns="http://www.w3.org/2000/svg" viewBox="0 0 420 260" role="img" aria-labelledby="title desc">
  <title id="title">Productos farmacéuticos</title>
  <desc id="desc">Ilustración de frascos, blíster y cruz farmacéutica.</desc>
  <defs>
    <linearGradient id="bg" x1="0" x2="1" y1="0" y2="1">
      <stop offset="0" stop-color="#edf9f6"/>
      <stop offset="1" stop-color="#d8f3ee"/>
    </linearGradient>
    <filter id="shadow" x="-20%" y="-20%" width="140%" height="140%">
      <feDropShadow dx="0" dy="16" stdDeviation="18" flood-color="#032f35" flood-opacity=".16"/>
    </filter>
  </defs>
  <rect width="420" height="260" rx="34" fill="url(#bg)"/>
  <circle cx="340" cy="52" r="50" fill="#e2bd72" opacity=".35"/>
  <circle cx="65" cy="205" r="62" fill="#31a99f" opacity=".14"/>
  <g filter="url(#shadow)">
    <rect x="70" y="88" width="86" height="112" rx="18" fill="#ffffff"/>
    <rect x="91" y="61" width="44" height="34" rx="10" fill="#087a76"/>
    <rect x="88" y="120" width="50" height="48" rx="12" fill="#d8f3ee"/>
    <path d="M113 130v28M99 144h28" stroke="#087a76" stroke-width="10" stroke-linecap="round"/>
    <rect x="184" y="72" width="68" height="128" rx="20" fill="#073f46"/>
    <rect x="199" y="102" width="38" height="54" rx="12" fill="#ffffff" opacity=".92"/>
    <path d="M218 113v32M202 129h32" stroke="#e2bd72" stroke-width="9" stroke-linecap="round"/>
    <rect x="277" y="110" width="90" height="70" rx="20" fill="#ffffff"/>
    <circle cx="306" cy="132" r="10" fill="#087a76"/>
    <circle cx="338" cy="132" r="10" fill="#e2bd72"/>
    <circle cx="306" cy="158" r="10" fill="#e2bd72"/>
    <circle cx="338" cy="158" r="10" fill="#087a76"/>
  </g>
</svg>
