<svg xmlns="http://www.w3.org/2000/svg" viewBox="0 0 420 260" role="img" aria-labelledby="title desc">
  <title id="title">Servicio local</title>
  <desc id="desc">Ilustración de farmacia cercana a la comunidad.</desc>
  <defs>
    <linearGradient id="bg" x1="0" x2="1" y1="0" y2="1">
      <stop offset="0" stop-color="#f7f4ec"/>
      <stop offset="1" stop-color="#d8f3ee"/>
    </linearGradient>
    <filter id="shadow" x="-20%" y="-20%" width="140%" height="140%">
      <feDropShadow dx="0" dy="16" stdDeviation="18" flood-color="#032f35" flood-opacity=".16"/>
    </filter>
  </defs>
  <rect width="420" height="260" rx="34" fill="url(#bg)"/>
  <path d="M36 204c54-22 91-18 134-4 60 20 117 26 214-14v74H36Z" fill="#31a99f" opacity=".15"/>
  <g filter="url(#shadow)">
    <path d="M90 128l120-76 120 76v78H90Z" fill="#ffffff"/>
    <path d="M74 130L210 43l136 87" fill="none" stroke="#073f46" stroke-width="18" stroke-linecap="round" stroke-linejoin="round"/>
    <rect x="170" y="136" width="80" height="70" rx="18" fill="#d8f3ee"/>
    <path d="M210 151v38M191 170h38" stroke="#087a76" stroke-width="12" stroke-linecap="round"/>
    <rect x="274" y="151" width="38" height="55" rx="12" fill="#e2bd72"/>
    <rect x="108" y="151" width="38" height="55" rx="12" fill="#073f46"/>
    <path d="M82 219h256" stroke="#087a76" stroke-width="12" stroke-linecap="round"/>
  </g>
</svg>
