<svg xmlns="http://www.w3.org/2000/svg" viewBox="0 0 420 260" role="img" aria-labelledby="title desc">
  <title id="title">Cuidado personal</title>
  <desc id="desc">Ilustración de productos de cuidado personal y bienestar.</desc>
  <defs>
    <linearGradient id="bg" x1="0" x2="1" y1="0" y2="1">
      <stop offset="0" stop-color="#fffaf0"/>
      <stop offset="1" stop-color="#edf9f6"/>
    </linearGradient>
    <filter id="shadow" x="-20%" y="-20%" width="140%" height="140%">
      <feDropShadow dx="0" dy="16" stdDeviation="18" flood-color="#032f35" flood-opacity=".14"/>
    </filter>
  </defs>
  <rect width="420" height="260" rx="34" fill="url(#bg)"/>
  <path d="M60 66c42-40 115-35 143 17 29 55 92 37 129 71 37 34 7 83-57 87-64 5-98-33-146-26-49 7-99-9-105-57-4-34 12-69 36-92Z" fill="#d8f3ee"/>
  <g filter="url(#shadow)">
    <rect x="82" y="92" width="78" height="104" rx="26" fill="#ffffff"/>
    <rect x="104" y="65" width="34" height="36" rx="11" fill="#e2bd72"/>
    <path d="M107 136c11-18 26-18 37 0-7 16-29 16-37 0Z" fill="#087a76"/>
    <rect x="191" y="71" width="68" height="126" rx="24" fill="#073f46"/>
    <rect x="207" y="102" width="36" height="52" rx="12" fill="#d8f3ee"/>
    <path d="M225 118c13 10 13 23 0 33-13-10-13-23 0-33Z" fill="#e2bd72"/>
    <rect x="286" y="112" width="60" height="84" rx="20" fill="#ffffff"/>
    <rect x="301" y="83" width="30" height="38" rx="10" fill="#31a99f"/>
    <path d="M316 136v36M298 154h36" stroke="#087a76" stroke-width="8" stroke-linecap="round"/>
  </g>
</svg>
